TITLE ""
FILE "P1Q_t_0940-0949.mp3" MP3
  TRACK 01 AUDIO
    TITLE "P1Q_t_0940-0949_01"
    INDEX 01 00:00:00
  TRACK 02 AUDIO
    TITLE "P1Q_t_0940-0949_02"
    INDEX 01 00:01:18
  TRACK 03 AUDIO
    TITLE "P1Q_t_0940-0949_03"
    INDEX 01 00:01:39
  TRACK 04 AUDIO
    TITLE "P1Q_t_0940-0949_04"
    INDEX 01 00:04:30
  TRACK 05 AUDIO
    TITLE "P1Q_t_0940-0949_05"
    INDEX 01 00:04:49
  TRACK 06 AUDIO
    TITLE "P1Q_t_0940-0949_06"
    INDEX 01 00:08:73
  TRACK 07 AUDIO
    TITLE "P1Q_t_0940-0949_07"
    INDEX 01 00:09:43
  TRACK 08 AUDIO
    TITLE "P1Q_t_0940-0949_08"
    INDEX 01 00:10:50
  TRACK 09 AUDIO
    TITLE "P1Q_t_0940-0949_09"
    INDEX 01 00:10:73
  TRACK 10 AUDIO
    TITLE "P1Q_t_0940-0949_10"
    INDEX 01 00:15:61
  TRACK 11 AUDIO
    TITLE "P1Q_t_0940-0949_11"
    INDEX 01 00:16:05
  TRACK 12 AUDIO
    TITLE "P1Q_t_0940-0949_12"
    INDEX 01 00:19:68
  TRACK 13 AUDIO
    TITLE "P1Q_t_0940-0949_13"
    INDEX 01 00:20:40
  TRACK 14 AUDIO
    TITLE "P1Q_t_0940-0949_14"
    INDEX 01 00:21:46
  TRACK 15 AUDIO
    TITLE "P1Q_t_0940-0949_15"
    INDEX 01 00:21:67
  TRACK 16 AUDIO
    TITLE "P1Q_t_0940-0949_16"
    INDEX 01 00:27:74
  TRACK 17 AUDIO
    TITLE "P1Q_t_0940-0949_17"
    INDEX 01 00:28:18
  TRACK 18 AUDIO
    TITLE "P1Q_t_0940-0949_18"
    INDEX 01 00:34:43
  TRACK 19 AUDIO
    TITLE "P1Q_t_0940-0949_19"
    INDEX 01 00:35:13
  TRACK 20 AUDIO
    TITLE "P1Q_t_0940-0949_20"
    INDEX 01 00:36:34
  TRACK 21 AUDIO
    TITLE "P1Q_t_0940-0949_21"
    INDEX 01 00:36:57
  TRACK 22 AUDIO
    TITLE "P1Q_t_0940-0949_22"
    INDEX 01 00:39:16
  TRACK 23 AUDIO
    TITLE "P1Q_t_0940-0949_23"
    INDEX 01 00:39:40
  TRACK 24 AUDIO
    TITLE "P1Q_t_0940-0949_24"
    INDEX 01 00:44:49
  TRACK 25 AUDIO
    TITLE "P1Q_t_0940-0949_25"
    INDEX 01 00:45:19
  TRACK 26 AUDIO
    TITLE "P1Q_t_0940-0949_26"
    INDEX 01 00:46:48
  TRACK 27 AUDIO
    TITLE "P1Q_t_0940-0949_27"
    INDEX 01 00:46:69
  TRACK 28 AUDIO
    TITLE "P1Q_t_0940-0949_28"
    INDEX 01 00:49:34
  TRACK 29 AUDIO
    TITLE "P1Q_t_0940-0949_29"
    INDEX 01 00:49:54
  TRACK 30 AUDIO
    TITLE "P1Q_t_0940-0949_30"
    INDEX 01 00:55:49
  TRACK 31 AUDIO
    TITLE "P1Q_t_0940-0949_31"
    INDEX 01 00:56:25
  TRACK 32 AUDIO
    TITLE "P1Q_t_0940-0949_32"
    INDEX 01 00:57:42
  TRACK 33 AUDIO
    TITLE "P1Q_t_0940-0949_33"
    INDEX 01 00:57:63
  TRACK 34 AUDIO
    TITLE "P1Q_t_0940-0949_34"
    INDEX 01 00:59:23
  TRACK 35 AUDIO
    TITLE "P1Q_t_0940-0949_35"
    INDEX 01 00:59:42
  TRACK 36 AUDIO
    TITLE "P1Q_t_0940-0949_36"
    INDEX 01 01:04:55
  TRACK 37 AUDIO
    TITLE "P1Q_t_0940-0949_37"
    INDEX 01 01:05:25
  TRACK 38 AUDIO
    TITLE "P1Q_t_0940-0949_38"
    INDEX 01 01:06:21
  TRACK 39 AUDIO
    TITLE "P1Q_t_0940-0949_39"
    INDEX 01 01:06:43
  TRACK 40 AUDIO
    TITLE "P1Q_t_0940-0949_40"
    INDEX 01 01:08:30
  TRACK 41 AUDIO
    TITLE "P1Q_t_0940-0949_41"
    INDEX 01 01:08:47
  TRACK 42 AUDIO
    TITLE "P1Q_t_0940-0949_42"
    INDEX 01 01:14:11
  TRACK 43 AUDIO
    TITLE "P1Q_t_0940-0949_43"
    INDEX 01 01:14:60
  TRACK 44 AUDIO
    TITLE "P1Q_t_0940-0949_44"
    INDEX 01 01:15:63
  TRACK 45 AUDIO
    TITLE "P1Q_t_0940-0949_45"
    INDEX 01 01:16:12
  TRACK 46 AUDIO
    TITLE "P1Q_t_0940-0949_46"
    INDEX 01 01:19:31
  TRACK 47 AUDIO
    TITLE "P1Q_t_0940-0949_47"
    INDEX 01 01:19:51
  TRACK 48 AUDIO
    TITLE "P1Q_t_0940-0949_48"
    INDEX 01 01:23:29
  TRACK 49 AUDIO
    TITLE "P1Q_t_0940-0949_49"
    INDEX 01 01:24:01
  TRACK 50 AUDIO
    TITLE "P1Q_t_0940-0949_50"
    INDEX 01 01:25:05
  TRACK 51 AUDIO
    TITLE "P1Q_t_0940-0949_51"
    INDEX 01 01:25:26
  TRACK 52 AUDIO
    TITLE "P1Q_t_0940-0949_52"
    INDEX 01 01:26:59
  TRACK 53 AUDIO
    TITLE "P1Q_t_0940-0949_53"
    INDEX 01 01:27:04
  TRACK 54 AUDIO
    TITLE "P1Q_t_0940-0949_54"
    INDEX 01 01:31:09
  TRACK 55 AUDIO
    TITLE "P1Q_t_0940-0949_55"
    INDEX 01 01:31:56
  TRACK 56 AUDIO
    TITLE "P1Q_t_0940-0949_56"
    INDEX 01 01:33:14
  TRACK 57 AUDIO
    TITLE "P1Q_t_0940-0949_57"
    INDEX 01 01:33:35
  TRACK 58 AUDIO
    TITLE "P1Q_t_0940-0949_58"
    INDEX 01 01:34:64
  TRACK 59 AUDIO
    TITLE "P1Q_t_0940-0949_59"
    INDEX 01 01:35:09
  TRACK 60 AUDIO
    TITLE "P1Q_t_0940-0949_60"
    INDEX 01 01:38:72
